<?xml version="1.0" encoding="utf-8"?>
<!-- Generator: Adobe Illustrator 24.0.3, SVG Export Plug-In . SVG Version: 6.00 Build 0)  -->
<svg version="1.1" id="Capa_1" xmlns="http://www.w3.org/2000/svg" xmlns:xlink="http://www.w3.org/1999/xlink" x="0px" y="0px"
	 viewBox="0 0 24 24" style="enable-background:new 0 0 24 24;" xml:space="preserve">
<style type="text/css">
	.st0{fill:#262626;}
</style>
<path class="st0" d="M19.2,11.5H6.1l4.8-4.7c0.3-0.3,0.3-0.8,0-1.1c-0.3-0.3-0.8-0.3-1.1,0l-6,6c-0.1,0.1-0.1,0.2-0.2,0.2
	c0,0.1,0,0.2,0,0.2c0,0,0,0,0,0c0,0,0,0,0,0s0,0,0,0c0,0.1,0,0.2,0.1,0.3c0,0.1,0.1,0.2,0.2,0.2c0,0,0,0,0,0l6,6
	C9.9,19,10.1,19,10.3,19c0.2,0,0.4-0.1,0.5-0.2c0.3-0.3,0.3-0.8,0-1.1L6.1,13h13.2c0.4,0,0.8-0.3,0.8-0.8S19.7,11.5,19.2,11.5z"/>
</svg>
