<?xml version="1.0" encoding="utf-8"?>
<!-- Generator: Adobe Illustrator 24.0.3, SVG Export Plug-In . SVG Version: 6.00 Build 0)  -->
<svg version="1.1" id="Capa_1" xmlns="http://www.w3.org/2000/svg" xmlns:xlink="http://www.w3.org/1999/xlink" x="0px" y="0px"
	 viewBox="0 0 1024 1024" style="enable-background:new 0 0 1024 1024;" xml:space="preserve">
<style type="text/css">
	.st0{fill:#FFFFFF;}
</style>
<title></title>
<g id="icomoon-ignore">
</g>
<path class="st0" d="M837,377H187c-47.3,2.7-76.3,23-87,61s-13,65.7-7,83l74,329c6,24.7,17.7,44.8,35,60.5s37,23.5,59,23.5h501
	c22,0,41.8-7.8,59.5-23.5s29.2-35.8,34.5-60.5l75-329c8-22,4.5-51.5-10.5-88.5S877.7,377,837,377L837,377z M373,772
	c0,10-3.5,18.5-10.5,25.5S347,808,337,808c-9.3,0-17.5-3.5-24.5-10.5S302,782,302,772V552c0-9.3,3.5-17.5,10.5-24.5
	S327.7,517,337,517c10,0,18.5,3.5,25.5,10.5S373,542.7,373,552V772z M543,772c0,10-3.5,18.5-10.5,25.5S517.3,808,508,808
	c-10,0-18.3-3.5-25-10.5S473,782,473,772V552c0-9.3,3.3-17.5,10-24.5s15-10.5,25-10.5c9.3,0,17.5,3.5,24.5,10.5S543,542.7,543,552
	V772z M713,772c0,10-3.3,18.5-10,25.5S688,808,678,808c-9.3,0-17.5-3.5-24.5-10.5S643,782,643,772V552c0-9.3,3.5-17.5,10.5-24.5
	S668.7,517,678,517c10,0,18.3,3.5,25,10.5s10,15.2,10,24.5V772z M512,160c40.7,0,77.2,13.7,109.5,41S677,263,691,305h73
	c-8-30.7-20-59.2-36-85.5s-35-49.2-57-68.5s-46.5-34.3-73.5-45S542,90,512,90s-58.5,5.3-85.5,16S375,131.7,353,151s-41,42.2-57,68.5
	s-28,54.8-36,85.5h73c14-42,37.2-76.7,69.5-104S471.3,160,512,160L512,160z"/>
</svg>
