<?xml version="1.0" encoding="utf-8"?>
<!-- Generator: Adobe Illustrator 24.0.3, SVG Export Plug-In . SVG Version: 6.00 Build 0)  -->
<svg version="1.1" id="Capa_1" xmlns="http://www.w3.org/2000/svg" xmlns:xlink="http://www.w3.org/1999/xlink" x="0px" y="0px"
	 viewBox="0 0 427.7 427.7" style="enable-background:new 0 0 427.7 427.7;" xml:space="preserve">
<g>
	<g>
		<path d="M344.2,76.6c-71.5-71.5-188.9-71.5-260.4,0s-71.5,188.9,0,260.4s187.1,71.5,258.6,0C415.7,265.5,415.7,148.1,344.2,76.6z
			 M177.3,298.5l-73.4-73.4l25.7-25.7l47.7,47.7l121-121l25.7,25.7L177.3,298.5z"/>
		<g>
			<path d="M213.9,404.9c-105.4,0-191.1-85.7-191.1-191.1c0-105.4,85.7-191.1,191.1-191.1c105.4,0,191.1,85.7,191.1,191.1
				C404.9,319.2,319.2,404.9,213.9,404.9z M213.9,30.1c-101.3,0-183.7,82.4-183.7,183.7c0,101.3,82.4,183.7,183.7,183.7
				c101.3,0,183.7-82.4,183.7-183.7C397.6,112.6,315.2,30.1,213.9,30.1z"/>
		</g>
	</g>
</g>
</svg>
