<?xml version="1.0" encoding="utf-8"?>
<!-- Generator: Adobe Illustrator 24.0.3, SVG Export Plug-In . SVG Version: 6.00 Build 0)  -->
<svg version="1.1" id="Capa_1" xmlns="http://www.w3.org/2000/svg" xmlns:xlink="http://www.w3.org/1999/xlink" x="0px" y="0px"
	 viewBox="0 0 34 34" style="enable-background:new 0 0 34 34;" xml:space="preserve">
<style type="text/css">
	.st0{fill:#262626;}
</style>
<g>
	<path class="st0" d="M30,0H4C1.8,0,0,1.8,0,4v26c0,2.2,1.8,4,4,4h26c2.2,0,4-1.8,4-4V4C34,1.8,32.2,0,30,0z M33,30c0,1.6-1.4,3-3,3
		H4c-1.6,0-3-1.4-3-3V4c0-1.6,1.4-3,3-3h26c1.6,0,3,1.4,3,3V30z"/>
	<path class="st0" d="M19.6,11.6c-0.3-0.3-0.8-0.3-1.1,0l-5.4,5c-0.1,0.1-0.2,0.3-0.2,0.5c0,0.2,0,0.4,0.2,0.5l5.4,5
		c0.1,0.1,0.3,0.2,0.5,0.2s0.4-0.1,0.5-0.2c0.3-0.3,0.3-0.8,0-1.1L14.7,17l4.9-4.3C19.9,12.4,19.9,11.9,19.6,11.6z"/>
</g>
</svg>
