<?xml version="1.0" encoding="utf-8"?>
<!-- Generator: Adobe Illustrator 24.0.3, SVG Export Plug-In . SVG Version: 6.00 Build 0)  -->
<svg version="1.1" id="Capa_1" xmlns="http://www.w3.org/2000/svg" xmlns:xlink="http://www.w3.org/1999/xlink" x="0px" y="0px"
	 viewBox="0 0 24 24" style="enable-background:new 0 0 24 24;" xml:space="preserve">
<style type="text/css">
	.st0{fill:#262626;}
</style>
<g>
	<path class="st0" d="M11.9,21.8c-0.4,0-0.7-0.1-1.1-0.4c-2-1.3-3.8-3-5.2-4.9c-1.3-1.8-2.1-3.8-2.2-6.1c0,0,0,0,0-0.1
		c0-2.3,0.9-4.4,2.5-6C7.6,2.9,9.7,2,11.9,2c0,0,0,0,0,0c2.3,0,4.4,0.9,6,2.5c1.6,1.6,2.5,3.7,2.4,6c-0.1,3.4-2,6.2-3.7,7.9
		c-1.1,1.2-2.4,2.2-3.7,3C12.7,21.6,12.3,21.8,11.9,21.8z M5,10.4L5,10.4c0.1,1.9,0.7,3.7,1.9,5.2c1.3,1.8,3,3.3,4.9,4.6
		c0,0,0.1,0,0.1,0.1c0.1,0.1,0.2,0.1,0.2,0c0,0,0.1,0,0.1-0.1c1.3-0.8,2.4-1.8,3.5-2.8c1.5-1.5,3.2-4,3.3-6.8c0-1.9-0.7-3.7-2-5
		c-1.3-1.3-3-2-4.9-2c0,0,0,0,0,0c-1.8,0-3.6,0.7-4.9,2C5.7,6.8,5,8.5,5,10.4z"/>
</g>
<g>
	<path class="st0" d="M11.9,13.8c-1.8,0-3.2-1.4-3.2-3.2s1.4-3.2,3.2-3.2c1.8,0,3.2,1.4,3.2,3.2S13.7,13.8,11.9,13.8z M11.9,8.8
		c-0.9,0-1.7,0.8-1.7,1.7s0.8,1.7,1.7,1.7s1.7-0.8,1.7-1.7S12.9,8.8,11.9,8.8z"/>
</g>
</svg>
