<?xml version="1.0" encoding="utf-8"?>
<!-- Generator: Adobe Illustrator 24.0.3, SVG Export Plug-In . SVG Version: 6.00 Build 0)  -->
<svg version="1.1" id="Capa_1" xmlns="http://www.w3.org/2000/svg" xmlns:xlink="http://www.w3.org/1999/xlink" x="0px" y="0px"
	 viewBox="0 0 24 24" style="enable-background:new 0 0 24 24;" xml:space="preserve">
<style type="text/css">
	.st0{fill:#262626;}
</style>
<g>
	<path class="st0" d="M11.6,13.7c-0.6,0-1.3-0.2-1.8-0.6L5.5,9.6C5.2,9.4,5.1,8.9,5.4,8.6c0.3-0.3,0.7-0.4,1.1-0.1l4.3,3.4
		c0.5,0.4,1.3,0.4,1.8,0l4.3-3.4c0.3-0.3,0.8-0.2,1.1,0.1c0.3,0.3,0.2,0.8-0.1,1.1l-4.3,3.4C12.9,13.5,12.3,13.7,11.6,13.7z"/>
</g>
<g>
	<path class="st0" d="M6.9,21.4c-3.2,0-5.6-2.6-5.6-6V8.8c0-3.4,2.4-6,5.6-6h9.4c1.6,0,3.1,0.7,4.1,1.8c1.1,1.1,1.6,2.7,1.5,4.3
		l0,6.5c0.1,1.5-0.5,3.1-1.5,4.2c-1.1,1.1-2.6,1.8-4.1,1.8H6.9z M16.3,4.2H6.9c-2.4,0-4.1,1.9-4.1,4.5v6.5c0,2.6,1.7,4.5,4.1,4.5
		h9.4c1.1,0,2.2-0.5,3-1.3c0.8-0.8,1.2-2,1.1-3.2l0-6.6c0.1-1.2-0.3-2.3-1.1-3.2C18.6,4.8,17.5,4.3,16.3,4.2z"/>
</g>
</svg>
