<?xml version="1.0" encoding="utf-8"?>
<!-- Generator: Adobe Illustrator 24.0.3, SVG Export Plug-In . SVG Version: 6.00 Build 0)  -->
<svg version="1.1" id="Capa_1" xmlns="http://www.w3.org/2000/svg" xmlns:xlink="http://www.w3.org/1999/xlink" x="0px" y="0px"
	 viewBox="0 0 34 34" style="enable-background:new 0 0 34 34;" xml:space="preserve">
<style type="text/css">
	.st0{fill:#262626;}
</style>
<g>
	<path class="st0" d="M4,34h26c2.2,0,4-1.8,4-4V4c0-2.2-1.8-4-4-4H4C1.8,0,0,1.8,0,4v26C0,32.2,1.8,34,4,34z M1,4c0-1.6,1.4-3,3-3
		h26c1.6,0,3,1.4,3,3v26c0,1.6-1.4,3-3,3H4c-1.6,0-3-1.4-3-3V4z"/>
	<path class="st0" d="M14.4,22.4c0.3,0.3,0.8,0.3,1.1,0l5.4-5c0.1-0.1,0.2-0.3,0.2-0.5s0-0.4-0.2-0.5l-5.4-5
		c-0.1-0.1-0.3-0.2-0.5-0.2s-0.4,0.1-0.5,0.2c-0.3,0.3-0.3,0.8,0,1.1l4.8,4.5l-4.9,4.3C14.1,21.6,14.1,22.1,14.4,22.4z"/>
</g>
</svg>
