<?xml version="1.0" encoding="utf-8"?>
<!-- Generator: Adobe Illustrator 24.0.3, SVG Export Plug-In . SVG Version: 6.00 Build 0)  -->
<svg version="1.1" id="Capa_1" xmlns="http://www.w3.org/2000/svg" xmlns:xlink="http://www.w3.org/1999/xlink" x="0px" y="0px"
	 viewBox="0 0 24 24" style="enable-background:new 0 0 24 24;" xml:space="preserve">
<style type="text/css">
	.st0{fill:#262626;}
</style>
<g>
	<path class="st0" d="M17.6,22.3c-0.7,0-1.5-0.2-2.4-0.6C10.8,19.8,4.1,13.2,2.3,8.8c-0.8-1.7-0.8-3.2,0-4.3c0.4-0.6,2.3-2.8,4-2.7
		c0.5,0,1,0.3,1.5,0.7c0.5,0.5,2.5,2.9,2.7,3.7c0.2,0.8-0.2,1.5-0.5,2C9.7,8.7,9.6,8.9,9.7,9.1c1,2.5,2.7,4.2,5.2,5.2
		c0.2,0.1,0.4,0,0.9-0.3c0.5-0.3,1.1-0.6,2-0.5c0.8,0.2,3.3,2.2,3.7,2.7c0.4,0.5,0.7,0.9,0.7,1.4c0.1,1.9-2.5,3.8-2.7,4
		C18.9,22.1,18.3,22.3,17.6,22.3z M6.2,3.2c-0.7,0-2.2,1.5-2.6,2c0,0,0,0,0,0.1C3.1,6,3.1,6.9,3.7,8.2c1.6,4,8.1,10.4,12.1,12.1
		c1.3,0.6,2.2,0.6,2.9,0.1c0.5-0.3,2.1-1.9,2.1-2.7c0-0.1-0.1-0.3-0.3-0.5c-0.6-0.6-2.6-2.1-3-2.3c-0.2,0-0.5,0.1-0.9,0.3
		c-0.5,0.3-1.3,0.7-2.2,0.4c-2.9-1.2-4.9-3.2-6.1-6C8,8.7,8.4,8,8.7,7.4C8.9,7,9,6.8,9,6.5c-0.1-0.4-1.6-2.4-2.3-3
		C6.5,3.4,6.4,3.3,6.2,3.2C6.2,3.2,6.2,3.2,6.2,3.2z M3,4.9L3,4.9L3,4.9z"/>
</g>
</svg>
