<?xml version="1.0" encoding="utf-8"?>
<!-- Generator: Adobe Illustrator 24.0.3, SVG Export Plug-In . SVG Version: 6.00 Build 0)  -->
<svg version="1.1" id="svg2481" xmlns:svg="http://www.w3.org/2000/svg"
	 xmlns="http://www.w3.org/2000/svg" xmlns:xlink="http://www.w3.org/1999/xlink" x="0px" y="0px" viewBox="0 0 682.7 682.7"
	 style="enable-background:new 0 0 682.7 682.7;" xml:space="preserve">
<style type="text/css">
	.st0{clip-path:url(#SVGID_2_);}
	.st1{fill:none;stroke:#FE8C48;stroke-width:26.6667;stroke-linecap:round;stroke-linejoin:round;stroke-miterlimit:13.3333;}
	.st2{fill:none;stroke:#01ABC1;stroke-width:26.6667;stroke-linecap:round;stroke-linejoin:round;stroke-miterlimit:13.3333;}
</style>
<g id="g2487" transform="matrix(1.3333333,0,0,-1.3333333,0,682.66667)">
	<g id="g2489">
		<g>
			<defs>
				<rect id="SVGID_1_" x="-85.3" y="-85.3" width="682.7" height="682.7"/>
			</defs>
			<clipPath id="SVGID_2_">
				<use xlink:href="#SVGID_1_"  style="overflow:visible;"/>
			</clipPath>
			<g id="g2491" class="st0">
				<g id="g2497" transform="translate(276.2666,463.6152)">
					<path id="path2499" class="st1" d="M0,0h145.7c22.1,0,40-17.9,40-40v-192.8"/>
				</g>
				<g id="g2501" transform="translate(298.751,159.6152)">
					<path id="path2503" class="st1" d="M0,0h-248.8c-22.1,0-40,17.9-40,40v224c0,22.1,17.9,40,40,40h136.3"/>
				</g>
				<path id="path2505" class="st1" d="M421.4,378.7h-162v-40h162V378.7z"/>
				<g id="g2507" transform="translate(259.415,291.6152)">
					<path id="path2509" class="st1" d="M0,0h162"/>
				</g>
				<g id="g2511" transform="translate(259.415,291.6152)">
					<path id="path2513" class="st1" d="M0,0h39.3"/>
				</g>
				<g id="g2515" transform="translate(293.1201,244.5674)">
					<path id="path2517" class="st1" d="M0,0h-33.7"/>
				</g>
				<g id="g2519" transform="translate(218,311.6152)">
					<path id="path2521" class="st1" d="M0,0c0,46.4-37.6,84-84,84s-84-37.6-84-84s37.6-84,84-84S0-46.4,0,0z"/>
				</g>
				<g id="g2523" transform="translate(189.8906,249.6719)">
					<path id="path2525" class="st1" d="M0,0L0,0c0,23.8-19.3,43.1-43.1,43.1h-25.5c-23.8,0-43.1-19.3-43.1-43.1"/>
				</g>
				<g id="g2527" transform="translate(134,292.7886)">
					<path id="path2529" class="st1" d="M0,0L0,0c-14.7,0-26.6,11.9-26.6,26.6v9.5c0,14.7,11.9,26.6,26.6,26.6s26.6-11.9,26.6-26.6
						v-9.5C26.6,11.9,14.7,0,0,0z"/>
				</g>
				<g id="g2531" transform="translate(298.751,150.0093)">
					<path id="path2533" class="st2" d="M0,0c0,56.1,45.5,101.6,101.6,101.6c56.1,0,101.6-45.5,101.6-101.6s-45.5-101.6-101.6-101.6
						C45.5-101.6,0-56.1,0,0z"/>
				</g>
				<g id="g2535" transform="translate(383.6152,175.2817)">
					<path id="path2537" class="st2" d="M0,0l10.1,31.3c2.1,6.4,11.1,6.4,13.2,0L33.4,0h33.1c6.7,0,9.5-8.6,4.1-12.6L43.9-31.9
						l10.3-31.3c2.1-6.4-5.2-11.7-10.7-7.8L16.9-51.6L-9.8-71.1c-5.4-4-12.8,1.4-10.7,7.8l10.2,31.4l-26.8,19.3
						C-42.5-8.6-39.8,0-33,0H0z"/>
				</g>
				<g id="g2539" transform="translate(231.2666,463.6152)">
					<path id="path2541" class="st1" d="M0,0L0,0"/>
				</g>
			</g>
		</g>
	</g>
</g>
</svg>
