<?xml version="1.0" encoding="utf-8"?>
<!-- Generator: Adobe Illustrator 24.0.3, SVG Export Plug-In . SVG Version: 6.00 Build 0)  -->
<svg version="1.1" id="Capa_1" xmlns="http://www.w3.org/2000/svg" xmlns:xlink="http://www.w3.org/1999/xlink" x="0px" y="0px"
	 viewBox="0 0 512 512" style="enable-background:new 0 0 512 512;" xml:space="preserve">
<style type="text/css">
	.st0{fill:#289CFF;}
	.st1{fill:#FE8C48;}
</style>
<g>
	<path class="st0" d="M504.5,217.2c4.2,0,7.5-3.4,7.5-7.5v-78.5c0-12.4-10.1-22.5-22.5-22.5h-7.8l-14-46.5
		c-3.6-11.9-16.2-18.7-28.1-15.1L383,64.1c-4,1.2-6.2,5.4-5,9.4s5.4,6.2,9.4,5l56.6-17.1c4-1.2,8.2,1.1,9.4,5l12.7,42.1H287.6
		l71-21.4c4-1.2,6.2-5.4,5-9.4c-1.2-4-5.4-6.2-9.4-5l-118.6,35.8H105.8c-4.2,0-7.5,3.4-7.5,7.5s3.4,7.5,7.5,7.5h383.7
		c4.1,0,7.5,3.4,7.5,7.5v71.5c-26.2,3.7-46.3,26.2-46.3,53.3s20.2,49.7,46.3,53.3v71.5c0,4.1-3.4,7.5-7.5,7.5h-67
		c-4.2,0-7.5,3.4-7.5,7.5s3.4,7.5,7.5,7.5h67c12.4,0,22.5-10.1,22.5-22.5v-78.5c0-4.2-3.4-7.5-7.5-7.5c-21.4,0-38.8-17.4-38.8-38.8
		C465.7,234.6,483.1,217.2,504.5,217.2L504.5,217.2z"/>
	<path class="st0" d="M392.4,388.3H22.5c-4.1,0-7.5-3.4-7.5-7.5V131.2c0-4.1,3.4-7.5,7.5-7.5h53.2c4.2,0,7.5-3.4,7.5-7.5
		s-3.4-7.5-7.5-7.5H22.5C10.1,108.6,0,118.7,0,131.2v249.6c0,12.4,10.1,22.5,22.5,22.5h7.8l14,46.5c2.9,9.7,11.9,16,21.6,16
		c2.2,0,210.4-62.5,210.4-62.5h116c4.2,0,7.5-3.4,7.5-7.5S396.6,388.3,392.4,388.3L392.4,388.3z M68.1,450.5c-4,1.2-8.2-1.1-9.4-5
		L46,403.4h178.4L68.1,450.5z"/>
	<path class="st1" d="M312.5,195.8c0,4.2,3.4,7.5,7.5,7.5s7.5-3.4,7.5-7.5v-15c0-4.2-3.4-7.5-7.5-7.5s-7.5,3.4-7.5,7.5V195.8z"/>
	<path class="st1" d="M312.5,285.9c0,4.2,3.4,7.5,7.5,7.5s7.5-3.4,7.5-7.5v-15c0-4.2-3.4-7.5-7.5-7.5s-7.5,3.4-7.5,7.5V285.9z"/>
	<path class="st1" d="M312.5,376.1c0,4.2,3.4,7.5,7.5,7.5s7.5-3.4,7.5-7.5v-15c0-4.2-3.4-7.5-7.5-7.5s-7.5,3.4-7.5,7.5V376.1z"/>
	<path class="st1" d="M312.5,331c0,4.2,3.4,7.5,7.5,7.5s7.5-3.4,7.5-7.5v-15c0-4.2-3.4-7.5-7.5-7.5s-7.5,3.4-7.5,7.5V331z"/>
	<path class="st1" d="M320,158.2c4.2,0,7.5-3.4,7.5-7.5v-15c0-4.2-3.4-7.5-7.5-7.5s-7.5,3.4-7.5,7.5v15
		C312.5,154.8,315.8,158.2,320,158.2z"/>
	<path class="st1" d="M312.5,240.8c0,4.2,3.4,7.5,7.5,7.5s7.5-3.4,7.5-7.5v-15c0-4.2-3.4-7.5-7.5-7.5s-7.5,3.4-7.5,7.5V240.8z"/>
	<path class="st0" d="M382,311.4V203.6c0-4.2-3.4-7.5-7.5-7.5s-7.5,3.4-7.5,7.5v107.7c0,4.2,3.4,7.5,7.5,7.5S382,315.5,382,311.4z"
		/>
	<path class="st0" d="M418.1,286.3v-57.5c0-4.2-3.4-7.5-7.5-7.5s-7.5,3.4-7.5,7.5v57.5c0,4.2,3.4,7.5,7.5,7.5
		S418.1,290.4,418.1,286.3z"/>
	<path class="st1" d="M83.3,221.6v20.2c0,8.9,6.6,16.2,15.2,17.4V324c0,12.4,10.1,22.5,22.5,22.5h98.8c12.4,0,22.5-10.1,22.5-22.5
		v-64.8c8.6-1.2,15.2-8.5,15.2-17.4v-20.2c0-9.7-7.9-17.5-17.5-17.5h-2.3c0.2-3.6,0.2-8-0.3-12.6c-1.9-20.5-10.9-28.9-18-32.4
		c-16.5-8.1-30.1,4.4-36.7,14.8h-24.5c-6.7-10.3-20.2-22.9-36.7-14.8c-7.2,3.5-16.1,12-18,32.4c-0.4,4.6-0.4,9-0.3,12.6h-2.3
		C91.1,204.1,83.3,211.9,83.3,221.6L83.3,221.6z M98.3,221.6c0-1.4,1.1-2.5,2.5-2.5h61.4v25.2h-61.4c-1.4,0-2.5-1.1-2.5-2.5V221.6z
		 M113.5,324v-64.6h48.7v72.1H121C116.8,331.5,113.5,328.1,113.5,324L113.5,324z M227.4,324c0,4.1-3.4,7.5-7.5,7.5h-42.6v-72.1h50.1
		L227.4,324z M242.5,221.6v20.2c0,1.4-1.1,2.5-2.5,2.5h-62.8v-25.2H240C241.4,219.1,242.5,220.2,242.5,221.6L242.5,221.6z
		 M212.8,172.5c9.2,4.5,10.4,21,9.9,31.5h-28.2v-20.8C196.9,179.2,204.3,168.4,212.8,172.5z M179.5,204.1h-18.2v-15.2h18.2V204.1z
		 M128,172.5c5.2-4.4,15.7,5.1,18.3,10.7v20.8h-28.2C117.6,193.6,118.8,177.1,128,172.5z"/>
</g>
</svg>
